# xmcd
#
# Track frame offsets: 
#        150
#        22493
#        48141
#        68966
#        101393
#        123012
#        151418
#        178974
#        205033
#
# Disc length: 3261 seconds
#
# Revision: 0
# Processed by: cddbd v1.5.1PL2 Copyright (c) Steve Scherf et al.
# Submitted via: ExactAudioCopy v0.95b3
#
DISCID=760cbb09
DTITLE=汪峰 - Live In Beijing [Disc 2]
DYEAR=2004
DGENRE=Pop
TTITLE0=彼岸
TTITLE1=美丽世界的孤儿
TTITLE2=笑着哭
TTITLE3=妈妈
TTITLE4=门开了
TTITLE5=绽放
TTITLE6=迷鹿
TTITLE7=在雨中
TTITLE8=晚安北京
EXTD=
EXTT0=
EXTT1=
EXTT2=
EXTT3=
EXTT4=
EXTT5=
EXTT6=
EXTT7=
EXTT8=
PLAYORDER=
